<svg width="60" height="60" viewBox="0 0 60 60" fill="none" xmlns="http://www.w3.org/2000/svg">
<rect width="60" height="60" rx="30" fill="#F3F3F3"/>
<path d="M27.0857 20.9665C26.9125 20.5337 26.6137 20.1628 26.2278 19.9014C25.8418 19.64 25.3865 19.5002 24.9203 19.5H21.7108C21.1245 19.5 20.5621 19.7329 20.1475 20.1475C19.7329 20.5621 19.5 21.1245 19.5 21.7108C19.5 32.0872 27.9117 40.5 38.2903 40.5C38.8765 40.4997 39.4385 40.2666 39.8529 39.852C40.2672 39.4375 40.5 38.8753 40.5 38.2892V35.0797C40.5 34.6133 40.3603 34.1577 40.0989 33.7716C39.8375 33.3854 39.4664 33.0864 39.0335 32.9132L35.9582 31.6835C35.5676 31.5272 35.1421 31.4794 34.7267 31.5451C34.3112 31.6108 33.9212 31.7876 33.598 32.0568L32.8047 32.7195C32.3572 33.0925 31.7864 33.2847 31.2044 33.2584C30.6224 33.2321 30.0713 32.9891 29.6593 32.5772L27.424 30.3383C27.0123 29.9268 26.7694 29.3762 26.7428 28.7947C26.7163 28.2131 26.9081 27.6427 27.2805 27.1953L27.942 26.402C28.2118 26.0789 28.3891 25.6888 28.4553 25.2731C28.5214 24.8574 28.4739 24.4315 28.3177 24.0407L27.0857 20.9665Z" stroke="black" stroke-width="2" stroke-linecap="round" stroke-linejoin="round"/>
</svg>
